<svg width="1440" height="566" viewBox="0 0 1440 566" fill="none" xmlns="http://www.w3.org/2000/svg"><path d="M148.6 136.8v201.6H65.4v156.8c0 7.2 3.2 10.4 8 10.4s8-3.2 8-10.4V361.6l67.2 8v117.6c0 56-24 80-75.2 80s-75.2-24-75.2-80V136.8c0-56 24-80 75.2-80s75.2 24 75.2 80m-75.2-18.4c-4.8 0-8 3.2-8 10.4v148h16v-148c0-7.2-3.2-10.4-8-10.4M321.444 220l-67.2 8V72c0-6.4-3.2-9.6-8-9.6s-8 3.2-8 9.6v424c0 6.4 3.2 9.6 8 9.6s8-3.2 8-9.6V311.2l67.2 8v168c0 56-24 80-75.2 80s-75.2-24-75.2-80V80.8c0-56 24-80 75.2-80s75.2 24 75.2 80zm133.662 344h-111.2V4h111.2v61.6h-44v173.6h40v61.6h-40v201.6h44zm20.238 0V4h67.2v498.4h40V564zm125.187 0V4h67.2v498.4h40V564zm249.704 0h-60.266V4h70.133l33.6 362.933h8.8c-4.533-56-12.533-166.933-13.6-239.466L887.302 4h60.267v560h-70.134l-33.6-362.933h-8.8c4.534 56 11.734 148 13.067 235.466zm120.371-76.8V370.4l67.204-8V496c0 6.4 3.2 9.6 8 9.6s8-3.2 8-9.6V383.2c0-39.733-21.87-66.133-43.2-96-20.27-28.533-40.004-60.267-40.004-109.6V80.8c0-56 24-80 75.204-80 51.2 0 75.2 24 75.2 80v105.6l-67.2 8V72c0-6.4-3.2-9.6-8-9.6s-8 3.2-8 9.6v105.6c0 36.267 19.73 61.067 40 89.067 21.33 29.6 43.2 62.666 43.2 116.533v104c0 56-24 80-75.2 80-51.204 0-75.204-24-75.204-80m173.114 0V4h67.2v492c0 6.4 3.2 9.6 8 9.6s8-3.2 8-9.6V4h67.2v483.2c0 56-24 80-75.2 80s-75.2-24-75.2-80m270.15 76.8h-67.19V65.6h-34.4V4h135.99v61.6h-34.4z" fill="#fff" fill-opacity=".2"/></svg>