<svg width="1435" height="327" viewBox="0 0 1435 327" fill="none" xmlns="http://www.w3.org/2000/svg">
<path d="M76.0879 328.93C56.5566 328.93 40.9927 325.268 29.396 317.943C17.7993 310.619 9.49854 300.06 4.49365 286.266C-0.51123 272.472 -3.01367 255.871 -3.01367 236.461V126.049C-3.01367 100.536 4.31055 81.249 18.959 68.1875C33.6074 55.0039 53.749 48.4121 79.3838 48.4121C132.118 48.4121 158.485 74.291 158.485 126.049V146.007C158.485 170.177 158.241 186.413 157.753 194.713H62.5381V247.814C62.5381 252.697 62.8433 257.519 63.4536 262.279C64.064 266.918 65.4067 270.763 67.4819 273.815C69.6792 276.867 73.1582 278.393 77.9189 278.393C84.7549 278.393 89.0273 275.463 90.7363 269.604C92.4453 263.622 93.2998 255.871 93.2998 246.349V219.982H158.485V235.546C158.485 256.054 155.922 273.266 150.795 287.182C145.79 300.976 137.245 311.413 125.16 318.493C113.197 325.451 96.8398 328.93 76.0879 328.93ZM62.1719 162.121H93.2998V125.133C93.2998 115.246 92.0791 108.166 89.6377 103.893C87.1963 99.4985 83.5342 97.3013 78.6514 97.3013C73.4023 97.3013 69.313 99.3765 66.3833 103.527C63.5757 107.677 62.1719 114.879 62.1719 125.133V162.121ZM243.461 328.93C220.146 328.93 201.347 321.667 187.064 307.14C172.904 292.614 165.824 272.289 165.824 246.166V97.4844C165.824 66.2344 171.989 42.3086 184.318 25.707C196.769 9.10547 216.972 0.804688 244.926 0.804688C260.185 0.804688 273.734 3.6123 285.575 9.22754C297.538 14.8428 306.938 23.2656 313.773 34.4961C320.609 45.6045 324.027 59.6426 324.027 76.6104V132.274H259.94V84.667C259.94 75.0234 258.72 68.5537 256.278 65.2578C253.837 61.8398 250.053 60.1309 244.926 60.1309C238.944 60.1309 234.916 62.3281 232.841 66.7227C230.766 70.9951 229.728 76.7324 229.728 83.9346V245.25C229.728 254.162 231.01 260.448 233.573 264.11C236.259 267.772 240.043 269.604 244.926 269.604C250.419 269.604 254.264 267.345 256.461 262.829C258.781 258.312 259.94 252.453 259.94 245.25V187.206H324.76V248.18C324.76 276.5 317.619 297.069 303.336 309.887C289.054 322.582 269.096 328.93 243.461 328.93ZM331.366 326V3.73438H460.272V65.9902H396.918V128.795H457.709V189.403H396.918V263.195H464.484V326H331.366ZM470.907 326V3.73438H535.36V271.068H601.645V326H470.907ZM604.955 326V3.73438H669.408V271.068H735.692V326H604.955ZM811.894 326V3.73438H878.178L907.841 158.092V3.73438H970.097V326H907.108L874.882 164.867V326H811.894ZM1060.2 328.93C1030.78 328.93 1009.54 321.605 996.479 306.957C983.539 292.309 977.069 268.993 977.069 237.011V205.517H1040.79V245.8C1040.79 253.246 1041.89 259.105 1044.09 263.378C1046.41 267.528 1050.37 269.604 1055.99 269.604C1061.85 269.604 1065.88 267.895 1068.07 264.477C1070.39 261.059 1071.55 255.443 1071.55 247.631C1071.55 237.743 1070.58 229.503 1068.62 222.912C1066.67 216.198 1063.25 209.85 1058.37 203.869C1053.61 197.765 1046.95 190.685 1038.41 182.628L1009.48 155.163C987.873 134.777 977.069 111.461 977.069 85.2163C977.069 57.7505 983.417 36.8154 996.112 22.4111C1008.93 8.00684 1027.42 0.804688 1051.59 0.804688C1081.13 0.804688 1102.07 8.67822 1114.4 24.4253C1126.85 40.1724 1133.08 64.0981 1133.08 96.2026H1067.52V74.0469C1067.52 69.6523 1066.24 66.2344 1063.68 63.793C1061.24 61.3516 1057.88 60.1309 1053.61 60.1309C1048.48 60.1309 1044.7 61.5957 1042.25 64.5254C1039.94 67.333 1038.78 70.9951 1038.78 75.5117C1038.78 80.0283 1040 84.9111 1042.44 90.1602C1044.88 95.4092 1049.7 101.452 1056.9 108.288L1094.07 143.993C1101.52 151.073 1108.36 158.581 1114.58 166.515C1120.81 174.328 1125.81 183.483 1129.6 193.981C1133.38 204.357 1135.27 217.052 1135.27 232.067C1135.27 262.34 1129.66 286.083 1118.43 303.295C1107.32 320.385 1087.91 328.93 1060.2 328.93ZM1216.4 328.93C1189.55 328.93 1169.77 321.422 1157.08 306.408C1144.38 291.271 1138.03 269.054 1138.03 239.757V3.73438H1200.66V237.194C1200.66 242.565 1200.96 247.753 1201.57 252.758C1202.18 257.641 1203.59 261.669 1205.78 264.843C1207.98 268.017 1211.52 269.604 1216.4 269.604C1221.41 269.604 1225.01 268.078 1227.21 265.026C1229.4 261.852 1230.75 257.763 1231.23 252.758C1231.84 247.753 1232.15 242.565 1232.15 237.194V3.73438H1294.77V239.757C1294.77 269.054 1288.42 291.271 1275.73 306.408C1263.03 321.422 1243.26 328.93 1216.4 328.93ZM1332.14 326V65.624H1293.87V3.73438H1434.86V65.624H1396.59V326H1332.14Z" fill="white" fill-opacity="0.2"/>
</svg>
