<svg width="40" height="39" viewBox="0 0 40 39" fill="none" xmlns="http://www.w3.org/2000/svg">
<path d="M15.916 27.0405C15.4414 27.137 15.0855 27.2334 14.7296 27.4264C14.255 26.8475 13.8992 26.1722 13.4246 25.6898C12.5941 24.7251 11.645 23.8568 10.8145 22.892C9.50952 21.4449 8.44178 19.9977 7.96723 18.1647C6.89948 13.6303 9.98406 9.19241 15.3228 7.45584C22.3225 5.14042 30.3899 8.99946 31.4576 15.0775C31.9322 17.8753 30.8645 20.1907 28.9662 22.4096C28.1358 23.3744 27.068 24.3392 26.2376 25.4004C25.6444 26.0757 25.2885 26.7511 24.6953 27.4264C24.458 27.7158 24.2207 28.0052 23.8648 28.1017C21.1361 28.97 18.4074 29.7418 15.6787 30.5136C15.3228 30.6101 15.0855 30.5136 14.9669 30.3207C14.8483 30.0312 14.8483 29.7418 15.2042 29.6453C15.4415 29.5489 15.6787 29.4524 15.916 29.4524C18.2888 28.7771 20.6615 28.1017 23.0343 27.3299C23.2716 27.2334 23.5089 27.0405 23.6275 26.8475C24.5766 25.4004 25.763 24.2427 26.9494 22.892C28.1358 21.6378 29.2035 20.4801 29.6781 18.9365C30.8645 15.8493 30.034 13.1479 27.4239 10.8325C24.458 8.13118 20.6616 7.26289 16.3906 8.32413C12.1196 9.38537 9.74679 11.7973 8.91632 15.3669C8.32313 17.8753 9.39087 19.9977 11.1704 21.9273C12.2382 23.085 13.306 24.2427 14.3737 25.4004C15.0855 25.7863 15.4414 26.3652 15.916 27.0405Z" fill="#FEC536"/>
<path d="M15.3229 36.5913C15.2043 36.4948 14.967 36.3984 14.967 36.2054C14.967 36.0125 15.0857 35.8195 15.2043 35.6265C15.2043 35.5301 15.4416 35.5301 15.5602 35.5301C18.1703 34.7583 20.899 33.9865 23.509 33.2146C24.1022 33.0217 24.3395 33.1182 24.4581 33.4076C24.5768 33.697 24.3395 33.9865 23.8649 34.1794C21.1362 34.9512 18.5262 35.723 15.7975 36.5913C15.6789 36.4948 15.5602 36.4948 15.3229 36.5913Z" fill="#FEC536"/>
<path d="M15.3229 33.4077C15.2043 33.3112 14.967 33.2148 14.967 33.0218C14.967 32.8289 15.0857 32.6359 15.2043 32.443C15.2043 32.3465 15.4416 32.3465 15.5602 32.3465C18.1703 31.5747 20.899 30.8029 23.509 30.031C24.1022 29.8381 24.3395 29.9346 24.4581 30.224C24.5768 30.5134 24.4581 30.8029 23.8649 30.9958C21.1362 31.7676 18.5262 32.6359 15.7975 33.4077C15.6789 33.4077 15.5602 33.4077 15.3229 33.4077Z" fill="#FEC536"/>
<path d="M23.8648 36.1094C23.0343 38.4248 18.4074 39.7755 15.5601 38.5213C18.2887 37.7495 21.0174 36.8812 23.8648 36.1094Z" fill="#FEC536"/>
<path d="M20.3058 2.34253C20.3058 2.72843 20.3058 3.11433 20.3058 3.50024C20.3058 3.78967 20.0685 3.98262 19.7126 3.98262C19.3567 3.98262 19.1194 3.78967 19.1194 3.50024C19.1194 2.72843 19.1194 1.95662 19.1194 1.08834C19.1194 0.798909 19.3567 0.605957 19.7126 0.605957C20.0685 0.605957 20.3058 0.798909 20.3058 1.08834C20.3058 1.47424 20.3058 1.95662 20.3058 2.34253Z" fill="#FEC536"/>
<path d="M2.39134 15.8491C2.86589 15.8491 3.34046 15.8491 3.81502 15.8491C4.28957 15.8491 4.52686 16.0421 4.52686 16.3315C4.52686 16.6209 4.28957 16.8139 3.81502 16.8139C2.86591 16.8139 1.91681 16.8139 0.967698 16.8139C0.493144 16.8139 0.255859 16.6209 0.255859 16.3315C0.255859 16.0421 0.493144 15.8491 0.967698 15.8491C1.44225 15.8491 1.91678 15.8491 2.39134 15.8491Z" fill="#FEC536"/>
<path d="M37.0337 16.9106C36.5592 16.9106 36.0846 16.9106 35.61 16.9106C35.2541 16.9106 35.0168 16.7176 35.0168 16.4282C35.0168 16.1388 35.2541 15.9458 35.61 15.9458C36.5591 15.9458 37.6269 15.9458 38.576 15.9458C38.9319 15.9458 39.1692 16.1388 39.1692 16.4282C39.1692 16.7176 38.9319 16.9106 38.576 16.9106C37.9828 16.9106 37.5083 16.9106 37.0337 16.9106Z" fill="#FEC536"/>
<path d="M6.18774 4.85107C6.42502 4.94755 6.54365 5.04403 6.66229 5.1405C7.37412 5.71936 7.96733 6.20174 8.67916 6.7806C9.03508 7.07002 9.03508 7.26297 8.67916 7.5524C8.44188 7.74536 8.08595 7.74536 7.73003 7.5524C7.0182 6.97355 6.30639 6.49117 5.7132 5.91231C5.59456 5.81583 5.47591 5.52641 5.59455 5.33345C5.71319 5.04403 6.0691 4.94755 6.18774 4.85107Z" fill="#FEC536"/>
<path d="M30.9832 25.0146C31.2204 25.1111 31.3391 25.2076 31.4577 25.3041C32.1695 25.7865 32.7627 26.3653 33.4746 26.8477C33.8305 27.1371 33.8305 27.4266 33.5932 27.6195C33.3559 27.8125 33 27.8125 32.6441 27.523C31.9323 26.9442 31.3391 26.4618 30.6273 25.8829C30.5086 25.7865 30.39 25.497 30.5086 25.3041C30.5086 25.2076 30.7459 25.1111 30.9832 25.0146Z" fill="#FEC536"/>
<path d="M33.8304 5.42957C33.7118 5.62252 33.5931 5.719 33.4745 5.81547C32.7627 6.39433 32.1695 6.87671 31.4576 7.45557C31.2203 7.64852 30.8644 7.74499 30.5085 7.45557C30.2712 7.26261 30.2712 6.97319 30.5085 6.68376C31.2204 6.1049 31.8135 5.52604 32.5254 5.04366C32.644 4.94719 32.9999 4.85071 33.2372 4.94719C33.4745 5.04366 33.5931 5.33309 33.8304 5.42957Z" fill="#FEC536"/>
<path d="M6.18768 27.8124C6.06904 27.7159 5.83177 27.6194 5.71313 27.4264C5.59449 27.33 5.71313 27.0405 5.71313 26.9441C6.42496 26.3652 7.13678 25.6899 7.96725 25.111C8.20453 24.9181 8.56043 24.9181 8.7977 25.111C9.03498 25.304 9.03498 25.5934 8.7977 25.7864C8.08587 26.3652 7.37405 26.9441 6.66222 27.5229C6.54358 27.7159 6.42495 27.8124 6.18768 27.8124Z" fill="#FEC536"/>
</svg>
