<svg width="39" height="38" viewBox="0 0 39 38" fill="none" xmlns="http://www.w3.org/2000/svg">
<path d="M36.9431 1.0722C36.3717 1.0722 35.7052 1.0722 35.1338 1.0722C31.2297 1.26044 27.516 2.10749 23.9928 3.80159C19.7078 5.77804 16.0893 8.60153 13.2326 12.3662C11.233 14.9073 9.80463 17.7308 8.75718 20.7426C8.66195 20.9308 8.75718 21.0249 8.8524 21.119C9.7094 21.9661 10.5664 22.8131 11.4234 23.6602C11.5186 23.7543 11.6139 23.9425 11.6139 24.1308C11.6139 24.319 11.5186 24.5072 11.3282 24.6014C11.1377 24.6955 10.8521 24.6955 10.7569 24.5072C10.2807 24.0367 9.89985 23.6602 9.42373 23.1896C8.8524 22.6249 8.37629 22.0602 7.80495 21.5896C7.6145 21.4014 7.51928 21.119 7.6145 20.8367C8.8524 17.1661 10.6616 13.7779 13.2326 10.7662C15.8036 7.66037 18.946 5.21334 22.4692 3.42512C25.7068 1.73102 29.23 0.695739 32.8485 0.225156C34.3721 0.0369224 35.8956 -0.0571942 37.4192 0.0369224C37.8953 0.0369224 37.9905 0.225156 38.0857 0.695739C38.2762 6.81332 36.7526 12.4603 33.4198 17.7308C30.087 22.9073 25.5164 26.766 19.803 29.2131C18.946 29.5895 17.9938 29.8719 17.0415 30.2484C16.7559 30.3425 16.5654 30.3425 16.375 30.0601C15.4228 29.119 14.3753 28.0837 13.4231 27.1425C13.2326 26.9543 13.1374 26.6719 13.3279 26.3896C13.5183 26.1072 13.8992 26.1072 14.1849 26.3896C15.0419 27.2366 15.8989 28.0837 16.7559 28.9307C16.9463 29.119 17.0415 29.119 17.232 29.0248C21.4218 27.6131 25.1355 25.3543 28.2778 22.3426C31.9915 18.7661 34.4673 14.5309 35.8956 9.73093C36.6574 7.09567 37.0383 4.36629 37.0383 1.54279C37.0383 1.35455 36.9431 1.26044 36.9431 1.0722Z" fill="#FEC536"/>
<path d="M31.7058 12.0839C31.7058 15.2838 29.1348 17.825 25.8972 17.825C22.6596 17.825 20.0886 15.2838 20.0886 12.0839C20.0886 8.97804 22.6596 6.34277 25.802 6.34277C29.1348 6.34277 31.7058 8.88392 31.7058 12.0839ZM30.5631 12.178C30.5631 9.54274 28.4682 7.47217 25.802 7.47217C23.1357 7.47217 21.0408 9.54274 21.0408 12.178C21.0408 14.8133 23.1357 16.8838 25.802 16.8838C28.4682 16.7897 30.5631 14.7191 30.5631 12.178Z" fill="#FEC536"/>
<path d="M17.1369 36.1775C17.8034 35.8011 18.47 35.3305 19.0413 34.8599C20.9458 33.1658 21.9932 31.0952 22.4693 28.6482C22.5646 28.2717 22.755 28.0835 23.0407 28.0835C23.4216 28.0835 23.612 28.3658 23.612 28.7423C23.5168 29.2129 23.4216 29.7776 23.2311 30.2482C22.1837 33.4481 20.2792 35.8011 17.3273 37.401C16.6608 37.7775 16.3751 37.5893 16.2799 36.9305C15.899 34.954 15.5181 32.8834 15.1372 30.907C15.1372 30.7188 15.1372 30.5305 15.1372 30.4364C15.2324 30.2482 15.4229 30.1541 15.7085 30.1541C15.899 30.1541 16.0894 30.3423 16.1847 30.5305C16.2799 31.0952 16.3751 31.6599 16.5655 32.3187C16.6608 33.6364 16.9464 34.8599 17.1369 36.1775Z" fill="#FEC536"/>
<path d="M1.42508 20.6484C1.99641 20.7425 2.56775 20.8366 3.04386 20.9308C4.37698 21.2131 5.7101 21.4013 6.94799 21.6837C7.04321 21.6837 7.04321 21.6837 7.13844 21.6837C7.4241 21.7778 7.61455 22.0602 7.51933 22.3425C7.4241 22.6249 7.23366 22.8131 6.85277 22.719C6.09099 22.5307 5.23398 22.4366 4.4722 22.2484C3.23431 21.966 1.99641 21.7778 0.663297 21.4955C0.568074 21.4955 0.568074 21.4955 0.472851 21.4955C-0.0032618 21.4013 -0.0984844 21.119 0.0919608 20.6484C0.663297 19.6131 1.32986 18.5778 2.18686 17.7308C3.99609 15.8485 6.18621 14.8132 8.662 14.2485C8.75722 14.2485 8.85244 14.2485 8.85244 14.1544C9.13811 14.0602 9.42378 14.2485 9.519 14.5308C9.61422 14.8132 9.42378 15.0955 9.04289 15.1896C8.47155 15.3779 7.80499 15.472 7.23366 15.6602C4.75787 16.5073 2.85342 18.0131 1.42508 20.1778C1.5203 20.4602 1.5203 20.5543 1.42508 20.6484Z" fill="#FEC536"/>
<path d="M8.18604 29.0246C8.28126 28.9305 8.37648 28.7423 8.4717 28.6482C10.2809 26.86 11.9949 25.1659 13.8042 23.3777C14.4707 22.7188 15.0421 22.1541 15.7086 21.4953C15.9943 21.213 16.28 21.213 16.5656 21.4012C16.7561 21.5894 16.7561 21.9659 16.4704 22.2483C14.3755 24.3188 12.2806 26.4835 10.0905 28.5541C9.80482 28.8364 9.51915 29.2129 9.13826 29.4952C8.94782 29.6835 8.75737 29.6835 8.56693 29.5893C8.28126 29.4952 8.18604 29.307 8.18604 29.0246Z" fill="#FEC536"/>
<path d="M5.71013 31.4717C5.90058 31.5658 6.09102 31.6599 6.18624 31.8481C6.28147 32.0364 6.18624 32.2246 6.09102 32.4128C5.9958 32.507 5.80535 32.6952 5.71013 32.8834C4.56746 34.0128 3.42479 35.2363 2.18689 36.3657C1.99645 36.4599 1.90122 36.554 1.71078 36.554C1.52033 36.554 1.32989 36.4599 1.23467 36.2716C1.13944 35.9893 1.13944 35.801 1.32989 35.6128C2.09167 34.8599 2.85345 34.1069 3.61523 33.354C4.18657 32.7893 4.66268 32.3187 5.23402 31.754C5.42446 31.6599 5.51968 31.5658 5.71013 31.4717Z" fill="#FEC536"/>
<path d="M4.85314 27.6133C5.32925 27.6133 5.61492 28.0839 5.42447 28.3662C5.32925 28.4603 5.32925 28.5544 5.23403 28.6486C3.99613 29.8721 2.75824 31.0956 1.52035 32.3191L1.42512 32.4132C1.13945 32.6015 0.853787 32.6956 0.663342 32.4132C0.472897 32.225 0.472897 31.8485 0.663342 31.6603C1.61557 30.7191 2.56779 29.778 3.52002 28.8368C3.90091 28.4603 4.18658 28.178 4.56747 27.8956C4.66269 27.7074 4.85314 27.6133 4.85314 27.6133Z" fill="#FEC536"/>
<path d="M10.1856 32.8839C10.1856 32.978 10.0904 33.0721 9.99518 33.2603C8.66206 34.5779 7.42417 35.8015 6.09105 37.1191C5.80538 37.4014 5.51971 37.4014 5.23405 37.1191C5.0436 36.9309 5.0436 36.5544 5.32927 36.3662C6.66239 35.0485 7.90028 33.825 9.2334 32.5074C9.42384 32.3191 9.61429 32.225 9.89996 32.3191C10.0904 32.4133 10.1856 32.5074 10.1856 32.8839Z" fill="#FEC536"/>
</svg>
